<svg width="0" height="0" class="hidden">
  <symbol version="1.0" xmlns="http://www.w3.org/2000/svg" viewBox="0 0 24 24" id="icon-github">
        <path d="M12 0c-6.626 0-12 5.373-12 12 0 5.302 3.438 9.8 8.207 11.387.599.111.793-.261.793-.577v-2.234c-3.338.726-4.033-1.416-4.033-1.416-.546-1.387-1.333-1.756-1.333-1.756-1.089-.745.083-.729.083-.729 1.205.084 1.839 1.237 1.839 1.237 1.07 1.834 2.807 1.304 3.492.997.107-.775.418-1.305.762-1.604-2.665-.305-5.467-1.334-5.467-5.931 0-1.311.469-2.381 1.236-3.221-.124-.303-.535-1.524.117-3.176 0 0 1.008-.322 3.301 1.23.957-.266 1.983-.399 3.003-.404 1.02.005 2.047.138 3.006.404 2.291-1.552 3.297-1.23 3.297-1.23.653 1.653.242 2.874.118 3.176.77.84 1.235 1.911 1.235 3.221 0 4.609-2.807 5.624-5.479 5.921.43.372.823 1.102.823 2.222v3.293c0 .319.192.694.801.576 4.765-1.589 8.199-6.086 8.199-11.386 0-6.627-5.373-12-12-12z"/>
    </symbol>
    <symbol version="1.0" xmlns="http://www.w3.org/2000/svg" id="icon-facebook" viewBox="0 0 24 24">
        <path d="M23.0405 0H0.960488C0.429488 0 0.000488281 0.429 0.000488281 0.96V23.04C0.000488281 23.571 0.429488 24 0.960488 24H23.0405C23.5715 24 24.0005 23.571 24.0005 23.04V0.96C24.0005 0.429 23.5715 0 23.0405 0ZM20.2685 7.005H18.3515C16.8485 7.005 16.5575 7.719 16.5575 8.769V11.082H20.1455L19.6775 14.703H16.5575V24H12.8165V14.706H9.68749V11.082H12.8165V8.412C12.8165 5.313 14.7095 3.624 17.4755 3.624C18.8015 3.624 19.9385 3.723 20.2715 3.768V7.005H20.2685Z" fill="#483D3F"/>
    </symbol>
    <symbol version="1.0" xmlns="http://www.w3.org/2000/svg" id="icon-twitter" viewBox="0 0 24 24">
        <path d="M24 4.557c-.883.392-1.832.656-2.828.775 1.017-.609 1.798-1.574 2.165-2.724-.951.564-2.005.974-3.127 1.195-.897-.957-2.178-1.555-3.594-1.555-3.179 0-5.515 2.966-4.797 6.045-4.091-.205-7.719-2.165-10.148-5.144-1.29 2.213-.669 5.108 1.523 6.574-.806-.026-1.566-.247-2.229-.616-.054 2.281 1.581 4.415 3.949 4.89-.693.188-1.452.232-2.224.084.626 1.956 2.444 3.379 4.6 3.419-2.07 1.623-4.678 2.348-7.29 2.04 2.179 1.397 4.768 2.212 7.548 2.212 9.142 0 14.307-7.721 13.995-14.646.962-.695 1.797-1.562 2.457-2.549z"/>
    </symbol>
    <symbol version="1.0" xmlns="http://www.w3.org/2000/svg" id="icon-menu" viewBox="0 0 18 18">
        <path d="M20 13.9089C20 14.4973 19.554 14.9733 19.005 14.9733H10.995C10.7311 14.9733 10.478 14.8612 10.2914 14.6616C10.1048 14.462 10 14.1912 10 13.9089C10 13.6266 10.1048 13.3559 10.2914 13.1562C10.478 12.9566 10.7311 12.8445 10.995 12.8445H19.005C19.555 12.8445 20 13.3205 20 13.9089Z" />
<path d="M20 7.48899C20 8.07738 19.554 8.55343 19.005 8.55343H0.995C0.731109 8.55343 0.478028 8.44128 0.291429 8.24166C0.10483 8.04204 0 7.7713 0 7.48899C0 7.20669 0.10483 6.93595 0.291429 6.73633C0.478028 6.53671 0.731109 6.42456 0.995 6.42456H19.005C19.555 6.42456 20 6.90168 20 7.48899Z" />
<path d="M19.005 2.13326C19.2689 2.13326 19.522 2.02111 19.7086 1.82149C19.8952 1.62187 20 1.35113 20 1.06883C20 0.786522 19.8952 0.515779 19.7086 0.316159C19.522 0.11654 19.2689 0.00439454 19.005 0.00439453H6.995C6.86433 0.00439453 6.73495 0.0319269 6.61423 0.0854196C6.49351 0.138912 6.38382 0.217318 6.29143 0.316159C6.19903 0.415001 6.12574 0.532344 6.07574 0.661486C6.02574 0.790629 6 0.929043 6 1.06883C6 1.20861 6.02574 1.34702 6.07574 1.47617C6.12574 1.60531 6.19903 1.72265 6.29143 1.82149C6.38382 1.92034 6.49351 1.99874 6.61423 2.05223C6.73495 2.10573 6.86433 2.13326 6.995 2.13326H19.005Z" />
    </symbol>
    <symbol version="1.0" xmlns="http://www.w3.org/2000/svg" id="icon-close" viewBox="0 0 18 18">
        <path d="M14.5092 0.773716C14.9179 1.16281 14.9416 1.8085 14.5636 2.21579L2.16395 15.5771C1.98226 15.7729 1.73012 15.8865 1.46297 15.8929C1.19583 15.8993 0.935568 15.7981 0.739453 15.6114C0.543338 15.4247 0.427429 15.1679 0.417225 14.8974C0.407022 14.627 0.503359 14.3651 0.685044 14.1693L13.0847 0.807987C13.4634 0.399951 14.1012 0.385331 14.5092 0.773716Z" />
<path d="M0.878263 0.676685C1.2817 0.309194 1.90928 0.350271 2.27999 0.766833L14.4412 14.4322C14.6194 14.6325 14.7134 14.8945 14.7025 15.1608C14.6916 15.4271 14.5768 15.6757 14.3832 15.852C14.1896 16.0283 13.9332 16.1179 13.6703 16.101C13.4074 16.0841 13.1596 15.9621 12.9815 15.7619L0.820273 2.09648C0.448887 1.67916 0.475556 1.04351 0.878263 0.676685Z" />
    </symbol>
    <symbol xmlns="http://www.w3.org/2000/svg" viewBox="0 0 32 32" id="html">
    <path d="M5.219 4l.093 1.094 1.75 19.781.063.688.656.187 7.938 2.219.25.062.281-.062 7.938-2.188.656-.187.062-.688 1.782-19.812.093-1.063h-1.093L6.313 4zm2.187 2l17.188.031-1.625 18L16 25.97l-7-1.94zm2.407 3l.656 7.469h8.562l-.281 3.218-2.75.75h-.031l-2.75-.75-.156-2.062h-2.5l.343 3.969L15.97 23H16l5.063-1.406L21.75 14h-9.031l-.219-2.531h9.469L22.187 9z"></path>
  </symbol>
  <symbol xmlns="http://www.w3.org/2000/svg" viewBox="0 0 512 512" id="css">
    <path d="M354.676 366.898l-98.608 28.125-98.458-28.248L150.864 289h48.253l3.433 39.563 53.586 15.163.132.273h.034l53.467-14.852L315.381 265H203l-4-50h120.646l4.396-51H140l-4-49h240.58l-21.904 251.898z"></path>
    <path d="M64 32l34.936 403.301L255.769 480l157.245-44.705L448 32H64zm319.041 378.51l-127.262 36.187-126.867-36.169L98.896 64H413.1l-30.059 346.51z"></path>
  </symbol>
  <symbol xmlns="http://www.w3.org/2000/svg" fill="none" viewBox="0 0 16 16" id="javascript">
    <path fill="#212121" d="M8.5 7.5A1.5 1.5 0 0110 6h1.5a.5.5 0 010 1H10a.5.5 0 00-.5.5V8a.5.5 0 00.5.5h.5A1.5 1.5 0 0112 10v.5a1.5 1.5 0 01-1.5 1.5H9a.5.5 0 010-1h1.5a.5.5 0 00.5-.5V10a.5.5 0 00-.5-.5H10A1.5 1.5 0 018.5 8v-.5zm-.5-1a.5.5 0 00-1 0v4a.5.5 0 01-.5.5h-1a.5.5 0 000 1h1A1.5 1.5 0 008 10.5v-4z"></path>
    <path fill="#212121" d="M2 4.5A2.5 2.5 0 014.5 2h7A2.5 2.5 0 0114 4.5v7a2.5 2.5 0 01-2.5 2.5h-7A2.5 2.5 0 012 11.5v-7zM4.5 3A1.5 1.5 0 003 4.5v7A1.5 1.5 0 004.5 13h7a1.5 1.5 0 001.5-1.5v-7A1.5 1.5 0 0011.5 3h-7z"></path>
  </symbol>
  <symbol xmlns="http://www.w3.org/2000/svg" viewBox="0 0 24 24" id="react">
    <path d="M11.103 10.438a1.786 1.786 0 102.44.654 1.786 1.786 0 00-2.44-.654zm8.005 1.938q-.176-.201-.371-.403.136-.144.264-.287c1.605-1.804 2.283-3.614 1.655-4.701-.602-1.043-2.393-1.354-4.636-.918q-.331.065-.659.146-.063-.216-.133-.43C14.467 3.49 13.238 1.999 11.982 2c-1.204 0-2.368 1.397-3.111 3.558q-.11.32-.203.644-.219-.054-.44-.1c-2.366-.485-4.271-.165-4.898.924-.601 1.043.027 2.75 1.528 4.472q.224.255.46.5c-.186.19-.361.381-.525.571-1.465 1.698-2.057 3.376-1.457 4.415.62 1.074 2.498 1.425 4.785.975q.278-.055.553-.124.1.351.221.697C9.635 20.649 10.792 22 11.992 22c1.24 0 2.482-1.453 3.235-3.659.06-.174.115-.355.169-.541q.355.088.715.156c2.203.417 3.952.09 4.551-.95.619-1.075-.02-2.877-1.554-4.63zM4.07 7.452c.386-.67 1.943-.932 3.986-.512q.196.04.399.09a20.464 20.464 0 00-.422 2.678A20.887 20.887 0 005.93 11.4q-.219-.227-.427-.465C4.216 9.461 3.708 8.081 4.07 7.452zm3.887 5.728c-.51-.387-.985-.783-1.416-1.181.43-.396.905-.79 1.415-1.176q-.028.589-.027 1.179 0 .59.028 1.178zm0 3.94a7.237 7.237 0 01-2.64.094 1.766 1.766 0 01-1.241-.657c-.365-.63.111-1.978 1.364-3.43q.236-.273.488-.532a20.49 20.49 0 002.107 1.7 20.802 20.802 0 00.426 2.712q-.25.063-.505.114zm7.1-8.039q-.503-.317-1.018-.613-.508-.292-1.027-.563a18.7 18.7 0 011.739-.635 18.218 18.218 0 01.306 1.811zM9.68 5.835c.636-1.85 1.578-2.98 2.304-2.98.773-.001 1.777 1.218 2.434 3.197q.064.194.12.39a20.478 20.478 0 00-2.526.97 20.061 20.061 0 00-2.52-.981q.087-.3.188-.596zm-.4 1.424a18.307 18.307 0 011.73.642q-1.052.542-2.048 1.181c.08-.638.187-1.249.318-1.823zm-.317 7.66q.497.319 1.009.613.522.3 1.057.576a18.196 18.196 0 01-1.744.665 19.144 19.144 0 01-.322-1.853zm5.456 3.146a7.236 7.236 0 01-1.238 2.333 1.766 1.766 0 01-1.188.748c-.729 0-1.658-1.085-2.29-2.896q-.112-.321-.206-.648a20.109 20.109 0 002.53-1.01 20.8 20.8 0 002.547.979q-.072.249-.155.494zm.362-1.324a19.267 19.267 0 01-1.762-.646q.509-.267 1.025-.565.53-.306 1.032-.627a18.152 18.152 0 01-.295 1.838zm.447-4.743q0 .911-.057 1.82c-.493.334-1.013.66-1.554.972-.54.311-1.073.597-1.597.856q-.827-.396-1.622-.854-.79-.455-1.544-.969-.07-.91-.07-1.822 0-.911.068-1.821a24.168 24.168 0 013.158-1.823q.816.397 1.603.851.79.454 1.55.959.065.914.065 1.831zm.956-5.093c1.922-.373 3.37-.122 3.733.507.387.67-.167 2.148-1.554 3.706q-.115.129-.238.259a20.061 20.061 0 00-2.144-1.688 20.04 20.04 0 00-.405-2.649q.31-.076.608-.135zm-.13 3.885a18.164 18.164 0 011.462 1.188 18.12 18.12 0 01-1.457 1.208q.023-.594.023-1.188 0-.604-.028-1.208zm3.869 5.789c-.364.631-1.768.894-3.653.538q-.324-.061-.664-.146a20.069 20.069 0 00.387-2.682 19.94 19.94 0 002.137-1.715q.177.183.336.364a7.234 7.234 0 011.403 2.238 1.766 1.766 0 01.054 1.403z"></path>
  </symbol>
  <symbol version="1.0" xmlns="http://www.w3.org/2000/svg" id="caret-right" viewBox="0 0 24 24"><path d="M21.883 12l-7.527 6.235.644.765 9-7.521-9-7.479-.645.764 7.529 6.236h-21.884v1h21.883z"/></symbol>
  <symbol version="1.0" xmlns="http://www.w3.org/2000/svg" id="link-external" viewBox="0 0 24 24"><path d="M14 4h-13v18h20v-11h1v12h-22v-20h14v1zm10 5h-1v-6.293l-11.646 11.647-.708-.708 11.647-11.646h-6.293v-1h8v8z"/></symbol>
 <symbol version="1.0" xmlns="http://www.w3.org/2000/svg" id="bg-shape" viewBox="0 0 1535 872"><path d="M1118.854 2.178c99.806 10.002 192 61.793 234.38 131.262 35.746 58.928 36.136 125.208 49.125 188.591 15.64 78.18 51.194 154.224 89.222 228.427 20.655 39.987 42.258 80.796 43.314 123.19 1.25 58.784-39.824 114.356-100.883 149.133-60.727 34.8-139.51 49.947-217.488 48.777-41.515-.384-84.364-5.647-120.02-22.751-37.604-17.997-64.013-47.554-101.968-65.323-35.024-16.556-77.224-21.522-117.704-22.337-53.184-1.2-106.104 3.412-156.76 13.977-57.798 12.081-112.086 31.46-169.568 43.816-57.482 12.354-121.457 16.95-178.186-.62-53.115-16.562-93.966-50.404-130.465-84.194-59.75-55.82-113.92-114.777-161.511-176.8-32.254-41.806-61.7-85.43-73.828-132.379-23.22-89.541 24.027-185.491 118.213-238.86 77.817-44.438 179.323-58.752 278.25-64.934 90.172-5.535 193.241.917 277.762-24.41 80.748-24.08 154.652-55.69 238.418-75.025 64.36-14.897 131.826-26.301 199.697-19.54z" fill="#F2F8FB" fill-rule="nonzero" opacity=".854"></path></symbol>
 <symbol id="smile-emoji" xmlns="http://www.w3.org/2000/svg" fill-rule="evenodd" clip-rule="evenodd" viewBox="0 0 24 24"><path d="M12 0c-6.627 0-12 5.373-12 12s5.373 12 12 12 12-5.373 12-12-5.373-12-12-12zm3.5 8c.828 0 1.5.671 1.5 1.5s-.672 1.5-1.5 1.5-1.5-.671-1.5-1.5.672-1.5 1.5-1.5zm-7 0c.828 0 1.5.671 1.5 1.5s-.672 1.5-1.5 1.5-1.5-.671-1.5-1.5.672-1.5 1.5-1.5zm3.501 10c-2.801 0-4.874-1.846-6.001-3.566l.493-.493c1.512 1.195 3.174 1.931 5.508 1.931 2.333 0 3.994-.736 5.506-1.931l.493.493c-1.127 1.72-3.199 3.566-5.999 3.566z"/></symbol>
 <symbol id="sad-emoji" xmlns="http://www.w3.org/2000/svg" fill-rule="evenodd" clip-rule="evenodd" viewBox="0 0 24 24"><path d="M12 0c-6.627 0-12 5.373-12 12s5.373 12 12 12 12-5.373 12-12-5.373-12-12-12zm3.5 8c.828 0 1.5.671 1.5 1.5s-.672 1.5-1.5 1.5-1.5-.671-1.5-1.5.672-1.5 1.5-1.5zm-7 0c.828 0 1.5.671 1.5 1.5s-.672 1.5-1.5 1.5-1.5-.671-1.5-1.5.672-1.5 1.5-1.5zm8.122 9.377c-1.286-.819-2.732-1.308-4.622-1.308s-3.336.489-4.622 1.308l-.471-.58c.948-1.161 2.761-2.797 5.093-2.797s4.145 1.636 5.093 2.797l-.471.58z"/></symbol>
 <symbol id="info-emoji" xmlns="http://www.w3.org/2000/svg" fill-rule="evenodd" clip-rule="evenodd" viewBox="0 0 24 24"><path d="M12 0c6.623 0 12 5.377 12 12s-5.377 12-12 12-12-5.377-12-12 5.377-12 12-12zm0 1c6.071 0 11 4.929 11 11s-4.929 11-11 11-11-4.929-11-11 4.929-11 11-11zm.5 17h-1v-9h1v9zm-.5-12c.466 0 .845.378.845.845 0 .466-.379.844-.845.844-.466 0-.845-.378-.845-.844 0-.467.379-.845.845-.845z"/></symbol>
 <symbol xmlns="http://www.w3.org/2000/svg" id="warning-emoji" viewBox="0 0 24 24"><path d="M12 2c5.514 0 10 4.486 10 10s-4.486 10-10 10-10-4.486-10-10 4.486-10 10-10zm0-2c-6.627 0-12 5.373-12 12s5.373 12 12 12 12-5.373 12-12-5.373-12-12-12zm-1.31 7.526c-.099-.807.528-1.526 1.348-1.526.771 0 1.377.676 1.28 1.451l-.757 6.053c-.035.283-.276.496-.561.496s-.526-.213-.562-.496l-.748-5.978zm1.31 10.724c-.69 0-1.25-.56-1.25-1.25s.56-1.25 1.25-1.25 1.25.56 1.25 1.25-.56 1.25-1.25 1.25z"/></symbol>
 <symbol xmlns="http://www.w3.org/2000/svg" id="icon-star" viewBox="0 0 24 24"><path d="M12 .587l3.668 7.568 8.332 1.151-6.064 5.828 1.48 8.279-7.416-3.967-7.417 3.967 1.481-8.279-6.064-5.828 8.332-1.151z"/></symbol>
    </svg>