<svg width="0" height="0" class="hidden">
  <symbol version="1.0" xmlns="http://www.w3.org/2000/svg" viewBox="0 0 24 24">
        <path d="M11.997 7.9983C9.79351 7.9983 7.99529 9.79651 7.99529 12C7.99529 14.2035 9.79351 16.0017 11.997 16.0017C14.2005 16.0017 15.9987 14.2035 15.9987 12C15.9987 9.79651 14.2005 7.9983 11.997 7.9983ZM23.9991 12C23.9991 10.3429 24.0141 8.70077 23.9211 7.04665C23.828 5.12536 23.3897 3.4202 21.9847 2.01525C20.5768 0.607302 18.8746 0.172008 16.9533 0.0789456C15.2962 -0.0141173 13.6541 0.000892936 12 0.000892936C10.3429 0.000892936 8.70077 -0.0141173 7.04665 0.0789456C5.12536 0.172008 3.4202 0.610305 2.01525 2.01525C0.607303 3.42321 0.172008 5.12536 0.0789456 7.04665C-0.0141172 8.70377 0.000892936 10.3459 0.000892936 12C0.000892936 13.6541 -0.0141172 15.2992 0.0789456 16.9533C0.172008 18.8746 0.610305 20.5798 2.01525 21.9847C3.42321 23.3927 5.12536 23.828 7.04665 23.9211C8.70377 24.0141 10.3459 23.9991 12 23.9991C13.6571 23.9991 15.2992 24.0141 16.9533 23.9211C18.8746 23.828 20.5798 23.3897 21.9847 21.9847C23.3927 20.5768 23.828 18.8746 23.9211 16.9533C24.0171 15.2992 23.9991 13.6571 23.9991 12ZM11.997 18.1572C8.58969 18.1572 5.83984 15.4073 5.83984 12C5.83984 8.5927 8.58969 5.84284 11.997 5.84284C15.4043 5.84284 18.1542 8.5927 18.1542 12C18.1542 15.4073 15.4043 18.1572 11.997 18.1572ZM18.4063 7.02864C17.6108 7.02864 16.9684 6.38621 16.9684 5.59067C16.9684 4.79513 17.6108 4.1527 18.4063 4.1527C19.2019 4.1527 19.8443 4.79513 19.8443 5.59067C19.8445 5.77957 19.8075 5.96667 19.7353 6.14124C19.6631 6.31581 19.5572 6.47442 19.4237 6.608C19.2901 6.74157 19.1315 6.84748 18.9569 6.91967C18.7823 6.99185 18.5952 7.02888 18.4063 7.02864Z" fill="#483D3F"/>
    </symbol>
    <symbol version="1.0" xmlns="http://www.w3.org/2000/svg" id="icon-facebook" viewBox="0 0 24 24">
        <path d="M23.0405 0H0.960488C0.429488 0 0.000488281 0.429 0.000488281 0.96V23.04C0.000488281 23.571 0.429488 24 0.960488 24H23.0405C23.5715 24 24.0005 23.571 24.0005 23.04V0.96C24.0005 0.429 23.5715 0 23.0405 0ZM20.2685 7.005H18.3515C16.8485 7.005 16.5575 7.719 16.5575 8.769V11.082H20.1455L19.6775 14.703H16.5575V24H12.8165V14.706H9.68749V11.082H12.8165V8.412C12.8165 5.313 14.7095 3.624 17.4755 3.624C18.8015 3.624 19.9385 3.723 20.2715 3.768V7.005H20.2685Z" fill="#483D3F"/>
    </symbol>
    <symbol version="1.0" xmlns="http://www.w3.org/2000/svg" id="icon-twitter" viewBox="0 0 24 24">
        <path d="M12.0005 0C5.3737 0 0.000488281 5.37321 0.000488281 12C0.000488281 18.6268 5.3737 24 12.0005 24C18.6273 24 24.0005 18.6268 24.0005 12C24.0005 5.37321 18.6273 0 12.0005 0ZM17.7675 9.04554C17.7755 9.17143 17.7755 9.30268 17.7755 9.43125C17.7755 13.3634 14.7808 17.8929 9.30852 17.8929C7.62102 17.8929 6.05674 17.4027 4.73888 16.5589C4.97995 16.5857 5.21031 16.5964 5.45674 16.5964C6.8496 16.5964 8.12995 16.125 9.15049 15.3268C7.84335 15.3 6.74513 14.4429 6.37013 13.2643C6.82817 13.3313 7.24067 13.3313 7.7121 13.2107C7.03904 13.074 6.43408 12.7084 6 12.1762C5.56591 11.644 5.32947 10.9779 5.33085 10.2911V10.2536C5.7246 10.4759 6.18799 10.6125 6.67281 10.6313C6.26524 10.3596 5.931 9.99164 5.69971 9.5599C5.46843 9.12817 5.34725 8.64603 5.34692 8.15625C5.34692 7.60179 5.49156 7.09554 5.75138 6.65625C6.49844 7.5759 7.43066 8.32806 8.48745 8.86384C9.54423 9.39961 10.7019 9.70702 11.8853 9.76607C11.4648 7.74375 12.9755 6.10714 14.7916 6.10714C15.6487 6.10714 16.4201 6.46607 16.9639 7.04464C17.6362 6.91875 18.2791 6.66696 18.8523 6.32946C18.63 7.01786 18.1639 7.59911 17.5451 7.96607C18.1451 7.90179 18.7237 7.73571 19.2594 7.50268C18.855 8.09732 18.3487 8.625 17.7675 9.04554Z" fill="#483D3F"/>
    </symbol>
    <symbol version="1.0" xmlns="http://www.w3.org/2000/svg" id="icon-menu" viewBox="0 0 24 24">
        <path d="M20 13.9089C20 14.4973 19.554 14.9733 19.005 14.9733H10.995C10.7311 14.9733 10.478 14.8612 10.2914 14.6616C10.1048 14.462 10 14.1912 10 13.9089C10 13.6266 10.1048 13.3559 10.2914 13.1562C10.478 12.9566 10.7311 12.8445 10.995 12.8445H19.005C19.555 12.8445 20 13.3205 20 13.9089Z" fill="#000100"/>
<path d="M20 7.48899C20 8.07738 19.554 8.55343 19.005 8.55343H0.995C0.731109 8.55343 0.478028 8.44128 0.291429 8.24166C0.10483 8.04204 0 7.7713 0 7.48899C0 7.20669 0.10483 6.93595 0.291429 6.73633C0.478028 6.53671 0.731109 6.42456 0.995 6.42456H19.005C19.555 6.42456 20 6.90168 20 7.48899Z" fill="#000100"/>
<path d="M19.005 2.13326C19.2689 2.13326 19.522 2.02111 19.7086 1.82149C19.8952 1.62187 20 1.35113 20 1.06883C20 0.786522 19.8952 0.515779 19.7086 0.316159C19.522 0.11654 19.2689 0.00439454 19.005 0.00439453H6.995C6.86433 0.00439453 6.73495 0.0319269 6.61423 0.0854196C6.49351 0.138912 6.38382 0.217318 6.29143 0.316159C6.19903 0.415001 6.12574 0.532344 6.07574 0.661486C6.02574 0.790629 6 0.929043 6 1.06883C6 1.20861 6.02574 1.34702 6.07574 1.47617C6.12574 1.60531 6.19903 1.72265 6.29143 1.82149C6.38382 1.92034 6.49351 1.99874 6.61423 2.05223C6.73495 2.10573 6.86433 2.13326 6.995 2.13326H19.005Z" fill="#000100"/>
    </symbol>
    <symbol version="1.0" xmlns="http://www.w3.org/2000/svg" id="icon-close" viewBox="0 0 24 24">
        <path d="M14.5092 0.773716C14.9179 1.16281 14.9416 1.8085 14.5636 2.21579L2.16395 15.5771C1.98226 15.7729 1.73012 15.8865 1.46297 15.8929C1.19583 15.8993 0.935568 15.7981 0.739453 15.6114C0.543338 15.4247 0.427429 15.1679 0.417225 14.8974C0.407022 14.627 0.503359 14.3651 0.685044 14.1693L13.0847 0.807987C13.4634 0.399951 14.1012 0.385331 14.5092 0.773716Z" fill="#000100"/>
<path d="M0.878263 0.676685C1.2817 0.309194 1.90928 0.350271 2.27999 0.766833L14.4412 14.4322C14.6194 14.6325 14.7134 14.8945 14.7025 15.1608C14.6916 15.4271 14.5768 15.6757 14.3832 15.852C14.1896 16.0283 13.9332 16.1179 13.6703 16.101C13.4074 16.0841 13.1596 15.9621 12.9815 15.7619L0.820273 2.09648C0.448887 1.67916 0.475556 1.04351 0.878263 0.676685Z" fill="#000100"/>
    </symbol>
    <symbol xmlns="http://www.w3.org/2000/svg" viewBox="0 0 32 32" id="html">
    <path d="M5.219 4l.093 1.094 1.75 19.781.063.688.656.187 7.938 2.219.25.062.281-.062 7.938-2.188.656-.187.062-.688 1.782-19.812.093-1.063h-1.093L6.313 4zm2.187 2l17.188.031-1.625 18L16 25.97l-7-1.94zm2.407 3l.656 7.469h8.562l-.281 3.218-2.75.75h-.031l-2.75-.75-.156-2.062h-2.5l.343 3.969L15.97 23H16l5.063-1.406L21.75 14h-9.031l-.219-2.531h9.469L22.187 9z"></path>
  </symbol>
  <symbol xmlns="http://www.w3.org/2000/svg" viewBox="0 0 512 512" id="css">
    <path d="M354.676 366.898l-98.608 28.125-98.458-28.248L150.864 289h48.253l3.433 39.563 53.586 15.163.132.273h.034l53.467-14.852L315.381 265H203l-4-50h120.646l4.396-51H140l-4-49h240.58l-21.904 251.898z"></path>
    <path d="M64 32l34.936 403.301L255.769 480l157.245-44.705L448 32H64zm319.041 378.51l-127.262 36.187-126.867-36.169L98.896 64H413.1l-30.059 346.51z"></path>
  </symbol>
  <symbol xmlns="http://www.w3.org/2000/svg" fill="none" viewBox="0 0 16 16" id="javascript">
    <path fill="#212121" d="M8.5 7.5A1.5 1.5 0 0110 6h1.5a.5.5 0 010 1H10a.5.5 0 00-.5.5V8a.5.5 0 00.5.5h.5A1.5 1.5 0 0112 10v.5a1.5 1.5 0 01-1.5 1.5H9a.5.5 0 010-1h1.5a.5.5 0 00.5-.5V10a.5.5 0 00-.5-.5H10A1.5 1.5 0 018.5 8v-.5zm-.5-1a.5.5 0 00-1 0v4a.5.5 0 01-.5.5h-1a.5.5 0 000 1h1A1.5 1.5 0 008 10.5v-4z"></path>
    <path fill="#212121" d="M2 4.5A2.5 2.5 0 014.5 2h7A2.5 2.5 0 0114 4.5v7a2.5 2.5 0 01-2.5 2.5h-7A2.5 2.5 0 012 11.5v-7zM4.5 3A1.5 1.5 0 003 4.5v7A1.5 1.5 0 004.5 13h7a1.5 1.5 0 001.5-1.5v-7A1.5 1.5 0 0011.5 3h-7z"></path>
  </symbol>
  <symbol xmlns="http://www.w3.org/2000/svg" viewBox="0 0 24 24" id="react">
    <path d="M11.103 10.438a1.786 1.786 0 102.44.654 1.786 1.786 0 00-2.44-.654zm8.005 1.938q-.176-.201-.371-.403.136-.144.264-.287c1.605-1.804 2.283-3.614 1.655-4.701-.602-1.043-2.393-1.354-4.636-.918q-.331.065-.659.146-.063-.216-.133-.43C14.467 3.49 13.238 1.999 11.982 2c-1.204 0-2.368 1.397-3.111 3.558q-.11.32-.203.644-.219-.054-.44-.1c-2.366-.485-4.271-.165-4.898.924-.601 1.043.027 2.75 1.528 4.472q.224.255.46.5c-.186.19-.361.381-.525.571-1.465 1.698-2.057 3.376-1.457 4.415.62 1.074 2.498 1.425 4.785.975q.278-.055.553-.124.1.351.221.697C9.635 20.649 10.792 22 11.992 22c1.24 0 2.482-1.453 3.235-3.659.06-.174.115-.355.169-.541q.355.088.715.156c2.203.417 3.952.09 4.551-.95.619-1.075-.02-2.877-1.554-4.63zM4.07 7.452c.386-.67 1.943-.932 3.986-.512q.196.04.399.09a20.464 20.464 0 00-.422 2.678A20.887 20.887 0 005.93 11.4q-.219-.227-.427-.465C4.216 9.461 3.708 8.081 4.07 7.452zm3.887 5.728c-.51-.387-.985-.783-1.416-1.181.43-.396.905-.79 1.415-1.176q-.028.589-.027 1.179 0 .59.028 1.178zm0 3.94a7.237 7.237 0 01-2.64.094 1.766 1.766 0 01-1.241-.657c-.365-.63.111-1.978 1.364-3.43q.236-.273.488-.532a20.49 20.49 0 002.107 1.7 20.802 20.802 0 00.426 2.712q-.25.063-.505.114zm7.1-8.039q-.503-.317-1.018-.613-.508-.292-1.027-.563a18.7 18.7 0 011.739-.635 18.218 18.218 0 01.306 1.811zM9.68 5.835c.636-1.85 1.578-2.98 2.304-2.98.773-.001 1.777 1.218 2.434 3.197q.064.194.12.39a20.478 20.478 0 00-2.526.97 20.061 20.061 0 00-2.52-.981q.087-.3.188-.596zm-.4 1.424a18.307 18.307 0 011.73.642q-1.052.542-2.048 1.181c.08-.638.187-1.249.318-1.823zm-.317 7.66q.497.319 1.009.613.522.3 1.057.576a18.196 18.196 0 01-1.744.665 19.144 19.144 0 01-.322-1.853zm5.456 3.146a7.236 7.236 0 01-1.238 2.333 1.766 1.766 0 01-1.188.748c-.729 0-1.658-1.085-2.29-2.896q-.112-.321-.206-.648a20.109 20.109 0 002.53-1.01 20.8 20.8 0 002.547.979q-.072.249-.155.494zm.362-1.324a19.267 19.267 0 01-1.762-.646q.509-.267 1.025-.565.53-.306 1.032-.627a18.152 18.152 0 01-.295 1.838zm.447-4.743q0 .911-.057 1.82c-.493.334-1.013.66-1.554.972-.54.311-1.073.597-1.597.856q-.827-.396-1.622-.854-.79-.455-1.544-.969-.07-.91-.07-1.822 0-.911.068-1.821a24.168 24.168 0 013.158-1.823q.816.397 1.603.851.79.454 1.55.959.065.914.065 1.831zm.956-5.093c1.922-.373 3.37-.122 3.733.507.387.67-.167 2.148-1.554 3.706q-.115.129-.238.259a20.061 20.061 0 00-2.144-1.688 20.04 20.04 0 00-.405-2.649q.31-.076.608-.135zm-.13 3.885a18.164 18.164 0 011.462 1.188 18.12 18.12 0 01-1.457 1.208q.023-.594.023-1.188 0-.604-.028-1.208zm3.869 5.789c-.364.631-1.768.894-3.653.538q-.324-.061-.664-.146a20.069 20.069 0 00.387-2.682 19.94 19.94 0 002.137-1.715q.177.183.336.364a7.234 7.234 0 011.403 2.238 1.766 1.766 0 01.054 1.403z"></path>
  </symbol>
    </svg>